<svg xmlns="http://www.w3.org/2000/svg" width="900" height="160" viewBox="0 0 900 160">
  <rect width="900" height="160" fill="#f0f3fa"/>
  <rect width="900" height="1" y="159" fill="#1a6fe8" opacity="0.3"/>
  <!-- grid lines -->
  <line x1="0" y1="40" x2="900" y2="40" stroke="#cdd5e8" stroke-width="1"/>
  <line x1="0" y1="80" x2="900" y2="80" stroke="#cdd5e8" stroke-width="1"/>
  <line x1="0" y1="120" x2="900" y2="120" stroke="#cdd5e8" stroke-width="1"/>
  <line x1="150" y1="0" x2="150" y2="160" stroke="#cdd5e8" stroke-width="1"/>
  <line x1="300" y1="0" x2="300" y2="160" stroke="#cdd5e8" stroke-width="1"/>
  <line x1="450" y1="0" x2="450" y2="160" stroke="#cdd5e8" stroke-width="1"/>
  <line x1="600" y1="0" x2="600" y2="160" stroke="#cdd5e8" stroke-width="1"/>
  <line x1="750" y1="0" x2="750" y2="160" stroke="#cdd5e8" stroke-width="1"/>
  <!-- accent bar -->
  <rect x="0" y="0" width="4" height="160" fill="#1a6fe8"/>
  <!-- dot cluster -->
  <circle cx="840" cy="35" r="22" fill="#1a6fe8" opacity="0.07"/>
  <circle cx="860" cy="55" r="14" fill="#0a9e6e" opacity="0.07"/>
  <circle cx="820" cy="55" r="10" fill="#6a28b8" opacity="0.07"/>
  <!-- title -->
  <text x="30" y="68" font-family="'Syne','Arial Black',sans-serif" font-size="32" font-weight="800" letter-spacing="1" fill="#141820">URBAN</text>
  <text x="161" y="68" font-family="'Syne','Arial Black',sans-serif" font-size="32" font-weight="800" letter-spacing="1" fill="#1a6fe8"> DYNAMICS</text>
  <text x="30" y="104" font-family="'Syne','Arial Black',sans-serif" font-size="32" font-weight="800" letter-spacing="1" fill="#141820">SIMULATOR</text>
  <!-- subtitle -->
  <text x="30" y="130" font-family="'DM Mono','Courier New',monospace" font-size="11" fill="#6b7591" letter-spacing="0.5">3D · LIVE CLIMATE · 6 METRICS · ANY CITY ON EARTH</text>
  <!-- badge dot -->
  <circle cx="30" cy="148" r="3" fill="#0a9e6e"/>
  <text x="40" y="152" font-family="'DM Mono','Courier New',monospace" font-size="9" fill="#6b7591">BAUHAUS-UNIVERSITÄT WEIMAR · IUDD · SoSe 2026</text>
</svg>
